ACLR_SUBJECT03_HOPP01_kinetics.mot
version=1
nRows=34
nColumns=19
inDegrees=yes
endheader
time	ground_force_vx	ground_force_vy	ground_force_vz	ground_force_px	ground_force_py	ground_force_pz	1_ground_force_vx	1_ground_force_vy	1_ground_force_vz	1_ground_force_px	1_ground_force_py	1_ground_force_pz	ground_torque_x	ground_torque_y	ground_torque_z	1_ground_torque_x	1_ground_torque_y	1_ground_torque_z
      0.75000000	     -0.47582093	      0.75670433	     -0.06976112	      1.92434978	      0.00000000	      0.02604140	      0.00000000	      0.00000000	      0.00000000	      1.57507670	      0.00000000	     -0.26034528	      0.00000000	     -0.00294127	      0.00000000	      0.00000000	      0.00000000	      0.00000000
      0.75041670	     -0.48269528	      0.78377789	     -0.07157902	      1.92271352	      0.00000000	      0.02568997	      0.00000000	      0.00000000	      0.00000000	      1.57507670	      0.00000000	     -0.26034528	      0.00000000	     -0.00319722	      0.00000000	      0.00000000	      0.00000000	      0.00000000
      0.75083333	     -0.48902383	      0.81045073	     -0.07334033	      1.92113912	      0.00000000	      0.02535182	      0.00000000	      0.00000000	      0.00000000	      1.57507670	      0.00000000	     -0.26034528	      0.00000000	     -0.00345118	      0.00000000	      0.00000000	      0.00000000	      0.00000000
      0.75125003	     -0.49477997	      0.83666879	     -0.07504058	      1.91961920	      0.00000000	      0.02502538	      0.00000000	      0.00000000	      0.00000000	      1.57507670	      0.00000000	     -0.26034528	      0.00000000	     -0.00370288	      0.00000000	      0.00000000	      0.00000000	      0.00000000
      0.75166667	     -0.49993727	      0.86237717	     -0.07667522	      1.91814721	      0.00000000	      0.02470923	      0.00000000	      0.00000000	      0.00000000	      1.57507670	      0.00000000	     -0.26034528	      0.00000000	     -0.00395202	      0.00000000	      0.00000000	      0.00000000	      0.00000000
      0.75208336	     -0.50446934	      0.88752002	     -0.07823970	      1.91671729	      0.00000000	      0.02440210	      0.00000000	      0.00000000	      0.00000000	      1.57507670	      0.00000000	     -0.26034528	      0.00000000	     -0.00419825	      0.00000000	      0.00000000	      0.00000000	      0.00000000
      0.75250000	     -0.50835001	      0.91204077	     -0.07972944	      1.91532385	      0.00000000	      0.02410283	      0.00000000	      0.00000000	      0.00000000	      1.57507670	      0.00000000	     -0.26034528	      0.00000000	     -0.00444122	      0.00000000	      0.00000000	      0.00000000	      0.00000000
      0.75291669	     -0.51155329	      0.93588197	     -0.08113980	      1.91396213	      0.00000000	      0.02381035	      0.00000000	      0.00000000	      0.00000000	      1.57507670	      0.00000000	     -0.26034528	      0.00000000	     -0.00468054	      0.00000000	      0.00000000	      0.00000000	      0.00000000
      0.75333333	     -0.51405358	      0.95898563	     -0.08246618	      1.91262758	      0.00000000	      0.02352371	      0.00000000	      0.00000000	      0.00000000	      1.57507670	      0.00000000	     -0.26034528	      0.00000000	     -0.00491579	      0.00000000	      0.00000000	      0.00000000	      0.00000000
      0.75375003	     -0.51582545	      0.98129302	     -0.08370393	      1.91131592	      0.00000000	      0.02324199	      0.00000000	      0.00000000	      0.00000000	      1.57507670	      0.00000000	     -0.26034528	      0.00000000	     -0.00514654	      0.00000000	      0.00000000	      0.00000000	      0.00000000
      0.75416666	     -0.51684397	      1.00274491	     -0.08484840	      1.91002321	      0.00000000	      0.02296433	      0.00000000	      0.00000000	      0.00000000	      1.57507670	      0.00000000	     -0.26034528	      0.00000000	     -0.00537231	      0.00000000	      0.00000000	      0.00000000	      0.00000000
      0.75458336	     -0.51708442	      1.02328169	     -0.08589495	      1.90874577	      0.00000000	      0.02268994	      0.00000000	      0.00000000	      0.00000000	      1.57507670	      0.00000000	     -0.26034528	      0.00000000	     -0.00559263	      0.00000000	      0.00000000	      0.00000000	      0.00000000
      0.75500000	     -0.51652282	      1.04284310	     -0.08683897	      1.90747988	      0.00000000	      0.02241805	      0.00000000	      0.00000000	      0.00000000	      1.57507670	      0.00000000	     -0.26034528	      0.00000000	     -0.00580698	      0.00000000	      0.00000000	      0.00000000	      0.00000000
      0.75541669	     -0.51513547	      1.06136882	     -0.08767584	      1.90622222	      0.00000000	      0.02214792	      0.00000000	      0.00000000	      0.00000000	      1.57507670	      0.00000000	     -0.26034528	      0.00000000	     -0.00601484	      0.00000000	      0.00000000	      0.00000000	      0.00000000
      0.75583333	     -0.51289940	      1.07879829	     -0.08840098	      1.90496945	      0.00000000	      0.02187882	      0.00000000	      0.00000000	      0.00000000	      1.57507670	      0.00000000	     -0.26034528	      0.00000000	     -0.00621564	      0.00000000	      0.00000000	      0.00000000	      0.00000000
      0.75625002	     -0.50979221	      1.09507060	     -0.08900986	      1.90371811	      0.00000000	      0.02161004	      0.00000000	      0.00000000	      0.00000000	      1.57507670	      0.00000000	     -0.26034528	      0.00000000	     -0.00640883	      0.00000000	      0.00000000	      0.00000000	      0.00000000
      0.75666666	     -0.50579214	      1.11012506	     -0.08949796	      1.90246499	      0.00000000	      0.02134088	      0.00000000	      0.00000000	      0.00000000	      1.57507670	      0.00000000	     -0.26034528	      0.00000000	     -0.00659379	      0.00000000	      0.00000000	      0.00000000	      0.00000000
      0.75708336	     -0.50087816	      1.12390101	     -0.08986084	      1.90120673	      0.00000000	      0.02107062	      0.00000000	      0.00000000	      0.00000000	      1.57507670	      0.00000000	     -0.26034528	     -0.00000000	     -0.00676992	     -0.00000000	      0.00000000	      0.00000000	      0.00000000
      0.75749999	     -0.49503016	      1.13633764	     -0.09009411	      1.89994001	      0.00000000	      0.02079853	      0.00000000	      0.00000000	      0.00000000	      1.57507670	      0.00000000	     -0.26034528	     -0.00000000	     -0.00693656	      0.00000000	      0.00000000	      0.00000000	      0.00000000
      0.75791669	     -0.48822874	      1.14737475	     -0.09019345	      1.89866138	      0.00000000	      0.02052388	      0.00000000	      0.00000000	      0.00000000	      1.57507670	      0.00000000	     -0.26034528	      0.00000000	     -0.00709306	      0.00000000	      0.00000000	      0.00000000	      0.00000000
      0.75833333	     -0.48045543	      1.15695214	     -0.09015461	      1.89736724	      0.00000000	      0.02024589	      0.00000000	      0.00000000	      0.00000000	      1.57507670	      0.00000000	     -0.26034528	      0.00000000	     -0.00723871	      0.00000000	      0.00000000	      0.00000000	      0.00000000
      0.75875002	     -0.47169274	      1.16501045	     -0.08997344	      1.89605379	      0.00000000	      0.01996376	      0.00000000	      0.00000000	      0.00000000	      1.57507670	      0.00000000	     -0.26034528	      0.00000000	     -0.00737281	      0.00000000	      0.00000000	      0.00000000	      0.00000000
      0.75916666	     -0.46192423	      1.17149055	     -0.08964588	      1.89471698	      0.00000000	      0.01967662	      0.00000000	      0.00000000	      0.00000000	      1.57507670	      0.00000000	     -0.26034528	      0.00000000	     -0.00749459	      0.00000000	      0.00000000	      0.00000000	      0.00000000
      0.75958335	     -0.45113441	      1.17633426	     -0.08916797	      1.89335275	      0.00000000	      0.01938357	      0.00000000	      0.00000000	      0.00000000	      1.57507670	      0.00000000	     -0.26034528	      0.00000000	     -0.00760328	      0.00000000	      0.00000000	      0.00000000	      0.00000000
      0.75999999	     -0.43930906	      1.17948377	     -0.08853588	      1.89195645	      0.00000000	      0.01908363	      0.00000000	      0.00000000	      0.00000000	      1.57507670	      0.00000000	     -0.26034528	      0.00000000	     -0.00769806	      0.00000000	      0.00000000	      0.00000000	      0.00000000
      0.76041669	     -0.42643505	      1.18088257	     -0.08774588	      1.89052296	      0.00000000	      0.01877573	      0.00000000	      0.00000000	      0.00000000	      1.57507670	      0.00000000	     -0.26034528	      0.00000000	     -0.00777807	      0.00000000	      0.00000000	      0.00000000	      0.00000000
      0.76083332	     -0.41250053	      1.18047500	     -0.08679439	      1.88904715	      0.00000000	      0.01845870	      0.00000000	      0.00000000	      0.00000000	      1.57507670	      0.00000000	     -0.26034528	      0.00000000	     -0.00784240	      0.00000000	      0.00000000	      0.00000000	      0.00000000
      0.76125002	     -0.39749488	      1.17820644	     -0.08567797	      1.88752270	      0.00000000	      0.01813125	      0.00000000	      0.00000000	      0.00000000	      1.57507670	      0.00000000	     -0.26034528	     -0.00000000	     -0.00789011	     -0.00000000	      0.00000000	      0.00000000	      0.00000000
      0.76166666	     -0.38140896	      1.17402363	     -0.08439335	      1.88594317	      0.00000000	      0.01779197	      0.00000000	      0.00000000	      0.00000000	      1.57507670	      0.00000000	     -0.26034528	     -0.00000000	     -0.00792019	      0.00000000	      0.00000000	      0.00000000	      0.00000000
      0.76208335	     -0.36423495	      1.16787481	     -0.08293739	      1.88430119	      0.00000000	      0.01743924	      0.00000000	      0.00000000	      0.00000000	      1.57507670	      0.00000000	     -0.26034528	     -0.00000000	     -0.00793155	     -0.00000000	      0.00000000	      0.00000000	      0.00000000
      0.76249999	     -0.34596646	      1.15970933	     -0.08130714	      1.88258803	      0.00000000	      0.01707126	      0.00000000	      0.00000000	      0.00000000	      1.57507670	      0.00000000	     -0.26034528	     -0.00000000	     -0.00792303	      0.00000000	      0.00000000	      0.00000000	      0.00000000
      0.76291668	     -0.32659873	      1.14947855	     -0.07949983	      1.88079453	      0.00000000	      0.01668598	      0.00000000	      0.00000000	      0.00000000	      1.57507670	      0.00000000	     -0.26034528	      0.00000000	     -0.00789338	      0.00000000	      0.00000000	      0.00000000	      0.00000000
      0.76333332	     -0.30612847	      1.13713515	     -0.07751291	      1.87890947	      0.00000000	      0.01628107	      0.00000000	      0.00000000	      0.00000000	      1.57507670	      0.00000000	     -0.26034528	      0.00000000	     -0.00784123	      0.00000000	      0.00000000	      0.00000000	      0.00000000
      0.76375002	     -0.28455406	      1.12263417	     -0.07534397	      1.87692058	      0.00000000	      0.01585384	      0.00000000	      0.00000000	      0.00000000	      1.57507670	      0.00000000	     -0.26034528	      0.00000000	     -0.00776509	      0.00000000	      0.00000000	      0.00000000	      0.00000000
